<?xml version="1.0" encoding="UTF-8"?>
<!DOCTYPE svg PUBLIC "-//W3C//DTD SVG 1.1//EN" "http://www.w3.org/Graphics/SVG/1.1/DTD/svg11.dtd">
<!-- Creator: CorelDRAW X5 -->
<svg xmlns="http://www.w3.org/2000/svg" xml:space="preserve" width="22.86mm" height="31.4476mm" style="shape-rendering:geometricPrecision; text-rendering:geometricPrecision; image-rendering:optimizeQuality; fill-rule:evenodd; clip-rule:evenodd"
viewBox="0 0 2286 3145"
 xmlns:xlink="http://www.w3.org/1999/xlink"
 xmlns:svg="http://www.w3.org/2000/svg">
 <defs>
  <style type="text/css">
   <![CDATA[
    .fil1 {fill:#013369;fill-rule:nonzero}
    .fil2 {fill:#D40A0A;fill-rule:nonzero}
    .fil0 {fill:white;fill-rule:nonzero}
   ]]>
  </style>
 </defs>
 <g id="Layer_x0020_1">
  <metadata id="CorelCorpID_0Corel-Layer"/>
 </g>
 <g id="svg2">
  <metadata id="CorelCorpID_1Corel-Layer"/>
  <path class="fil0" d="M2211 357c-99,70 -286,167 -529,108 -419,-104 -539,-465 -539,-465 0,0 -120,362 -539,465 -242,60 -430,-36 -529,-108l-75 0 0 1950c0,49 12,147 92,244 99,120 266,198 497,231 185,26 321,85 416,177 70,69 138,186 138,186 0,0 69,-120 138,-186 96,-93 233,-151 416,-177 232,-33 399,-112 497,-231 80,-97 92,-195 92,-244l0 -1950c0,0 -75,0 -75,0z"/>
  <path class="fil1" d="M2218 433c0,0 -230,179 -552,98 -376,-94 -523,-377 -523,-377 0,0 -147,283 -523,377 -322,81 -552,-98 -552,-98l0 1874c0,64 26,334 531,407 199,28 348,93 454,196 38,37 67,74 90,109 22,-34 52,-72 90,-109 107,-103 255,-167 454,-196 504,-73 531,-343 531,-407l0 -1874 0 0z"/>
  <path class="fil0" d="M1143 2829c0,0 147,-180 526,-239 435,-68 422,-272 422,-282l0 -982 -1897 0 0 981c0,11 -13,215 422,282 380,59 527,240 527,240z"/>
  <path class="fil2" d="M701 2043l0 -467 -59 -33 0 -121 266 0 0 121 -56 33 0 952 -143 -43 -206 -609 0 401 65 50 0 123 -285 -72 0 -106 65 -25 0 -672 -66 -32 0 -121 216 0 202 621zm490 427l0 0 57 68 0 121 -283 -106 0 -103 63 -25 0 -848 -63 -31 0 -122 492 0 0 247 -108 0 -33 -101 -125 0 0 285 94 0 37 -54 75 0 0 251 -75 0 -35 -51 -96 0 0 469 2 0 0 0zm313 43l0 0 0 -121 70 -58 0 -757 -60 -31 0 -122 283 0 0 122 -56 31 0 710 122 -33 23 -186 115 0 0 311 -499 134 0 0z"/>
  <path class="fil0" d="M244 1124l-86 -65 105 0 34 -100 34 100 105 0 -86 65 31 101 -85 -60 -85 60 33 -101zm372 0l0 0 -86 -65 105 0 34 -100 34 100 105 0 -86 65 31 101 -85 -60 -85 60 33 -101zm-372 -336l0 0 -86 -65 105 0 34 -100 34 100 105 0 -86 65 31 101 -85 -60 -85 60 33 -101zm372 0l0 0 -86 -65 105 0 34 -100 34 100 105 0 -86 65 31 101 -85 -60 -85 60 33 -101zm1457 437l0 0 -85 -60 -85 60 31 -101 -86 -65 106 0 34 -100 34 100 105 0 -86 65 32 101zm-371 0l0 0 -85 -60 -85 60 31 -101 -86 -65 105 0 34 -100 34 100 105 0 -86 65 33 101 0 0zm371 -337l0 0 -85 -60 -85 60 31 -101 -86 -65 106 0 34 -100 34 100 105 0 -86 65 32 101zm-371 0l0 0 -85 -60 -85 60 31 -101 -86 -65 105 0 34 -100 34 100 105 0 -86 65 33 101 0 0zm-322 -371l0 0c9,-1 14,10 19,17 37,94 47,208 19,318 -43,167 -184,321 -486,360 -7,1 -15,-1 -16,-5 14,-64 48,-185 121,-313 14,9 27,18 40,27 5,-8 11,-17 20,-31 -37,-29 -80,-50 -128,-59 0,0 -9,19 -16,32 0,0 19,4 41,12 -65,139 -88,268 -94,327 -19,-29 -33,-98 -38,-135 -48,-352 205,-558 481,-562 19,-1 25,3 25,3 0,0 -61,23 -131,76 0,0 -17,-7 -34,-12 -11,7 -22,15 -33,23 33,8 75,24 115,58 9,-8 18,-17 27,-25 -10,-8 -25,-19 -39,-26 63,-61 107,-84 107,-84l0 0zm-260 333l0 0c7,-10 15,-22 22,-33 -31,-26 -76,-52 -131,-63 -8,12 -22,34 -22,34 45,9 91,29 130,62zm50 -69l0 0c8,-11 16,-21 24,-31 -43,-35 -92,-56 -130,-63 -9,10 -18,21 -25,30 50,10 95,33 131,64l0 0zm56 -67l0 0c8,-10 17,-19 27,-28 -26,-22 -65,-47 -121,-61 -10,8 -22,17 -32,27 45,10 88,30 126,62l0 0z"/>
 </g>
</svg>
